<svg id="visual" viewBox="0 0 900 600" width="900" height="600" xmlns="http://www.w3.org/2000/svg" xmlns:xlink="http://www.w3.org/1999/xlink" version="1.1"><g stroke-width="1" stroke-linejoin="bevel"><path d="M448.6 292.7L426.4 342.3L449.6 341.3Z" fill="#97456e" stroke="#97456e"></path><path d="M426.4 342.3L443.4 375L449.6 341.3Z" fill="#dc76a8" stroke="#dc76a8"></path><path d="M443.4 375L450.6 385L449.6 341.3Z" fill="#7d3258" stroke="#7d3258"></path><path d="M449.6 341.3L524.8 363.3L448.6 292.7Z" fill="#97456e" stroke="#97456e"></path><path d="M448.6 292.7L336.2 302.3L426.4 342.3Z" fill="#97456e" stroke="#97456e"></path><path d="M450.6 385L524.8 363.3L449.6 341.3Z" fill="#ce6c9c" stroke="#ce6c9c"></path><path d="M448.6 292.7L578.8 292.7L440.4 244.7Z" fill="#dc76a8" stroke="#dc76a8"></path><path d="M440.4 244.7L336.2 302.3L448.6 292.7Z" fill="#b25885" stroke="#b25885"></path><path d="M426.4 342.3L351.2 411L443.4 375Z" fill="#70294d" stroke="#70294d"></path><path d="M443.4 375L405.4 460.7L450.6 385Z" fill="#a44e79" stroke="#a44e79"></path><path d="M440.4 244.7L339.2 242.7L336.2 302.3Z" fill="#70294d" stroke="#70294d"></path><path d="M336.2 302.3L351.2 411L426.4 342.3Z" fill="#ea80b5" stroke="#ea80b5"></path><path d="M440.4 244.7L392.4 193L339.2 242.7Z" fill="#ea80b5" stroke="#ea80b5"></path><path d="M450.6 385L531.8 420L524.8 363.3Z" fill="#a44e79" stroke="#a44e79"></path><path d="M505.6 462.7L531.8 420L450.6 385Z" fill="#b25885" stroke="#b25885"></path><path d="M628.1 303.3L578.8 292.7L644.1 372Z" fill="#ea80b5" stroke="#ea80b5"></path><path d="M524.8 363.3L578.8 292.7L448.6 292.7Z" fill="#ea80b5" stroke="#ea80b5"></path><path d="M440.4 244.7L509.6 169L392.4 193Z" fill="#70294d" stroke="#70294d"></path><path d="M351.2 411L405.4 460.7L443.4 375Z" fill="#c06291" stroke="#c06291"></path><path d="M628.1 303.3L588.1 288.7L578.8 292.7Z" fill="#dc76a8" stroke="#dc76a8"></path><path d="M578.8 292.7L509.6 169L440.4 244.7Z" fill="#7d3258" stroke="#7d3258"></path><path d="M339.2 242.7L294.9 251.7L336.2 302.3Z" fill="#ea80b5" stroke="#ea80b5"></path><path d="M336.2 302.3L274.9 422L351.2 411Z" fill="#97456e" stroke="#97456e"></path><path d="M340.2 182L294.9 251.7L339.2 242.7Z" fill="#8a3b63" stroke="#8a3b63"></path><path d="M274.9 422L346.2 445.7L351.2 411Z" fill="#97456e" stroke="#97456e"></path><path d="M351.2 411L346.2 445.7L405.4 460.7Z" fill="#a44e79" stroke="#a44e79"></path><path d="M405.4 460.7L505.6 462.7L450.6 385Z" fill="#a44e79" stroke="#a44e79"></path><path d="M518.6 164.3L509.6 169L578.8 292.7Z" fill="#a44e79" stroke="#a44e79"></path><path d="M354.2 115.3L340.2 182L392.4 193Z" fill="#97456e" stroke="#97456e"></path><path d="M392.4 193L340.2 182L339.2 242.7Z" fill="#70294d" stroke="#70294d"></path><path d="M586.8 164L518.6 164.3L578.8 292.7Z" fill="#ce6c9c" stroke="#ce6c9c"></path><path d="M395.4 102.3L354.2 115.3L392.4 193Z" fill="#70294d" stroke="#70294d"></path><path d="M222.7 267.7L247.9 323.3L294.9 251.7Z" fill="#ea80b5" stroke="#ea80b5"></path><path d="M294.9 251.7L247.9 323.3L336.2 302.3Z" fill="#a44e79" stroke="#a44e79"></path><path d="M644.1 372L578.8 292.7L524.8 363.3Z" fill="#7d3258" stroke="#7d3258"></path><path d="M586.8 164L547.8 137.3L518.6 164.3Z" fill="#a44e79" stroke="#a44e79"></path><path d="M644.1 372L524.8 363.3L531.8 420Z" fill="#b25885" stroke="#b25885"></path><path d="M247.9 323.3L274.9 422L336.2 302.3Z" fill="#8a3b63" stroke="#8a3b63"></path><path d="M405.4 460.7L488.6 515.3L505.6 462.7Z" fill="#ea80b5" stroke="#ea80b5"></path><path d="M588.8 469.7L600.1 445.7L531.8 420Z" fill="#b25885" stroke="#b25885"></path><path d="M435.4 567.3L488.6 515.3L405.4 460.7Z" fill="#8a3b63" stroke="#8a3b63"></path><path d="M310.9 483.7L405.4 460.7L346.2 445.7Z" fill="#a44e79" stroke="#a44e79"></path><path d="M588.8 469.7L531.8 420L552.8 500.3Z" fill="#c06291" stroke="#c06291"></path><path d="M274.9 422L310.9 483.7L346.2 445.7Z" fill="#97456e" stroke="#97456e"></path><path d="M586.8 164L578.8 292.7L588.1 288.7Z" fill="#7d3258" stroke="#7d3258"></path><path d="M490.6 37.7L395.4 102.3L509.6 169Z" fill="#f98ac1" stroke="#f98ac1"></path><path d="M600.1 445.7L644.1 372L531.8 420Z" fill="#dc76a8" stroke="#dc76a8"></path><path d="M644.1 228L586.8 164L588.1 288.7Z" fill="#f98ac1" stroke="#f98ac1"></path><path d="M552.8 500.3L531.8 420L505.6 462.7Z" fill="#c06291" stroke="#c06291"></path><path d="M656.3 464.7L669.3 364.3L644.1 372Z" fill="#ea80b5" stroke="#ea80b5"></path><path d="M488.6 515.3L552.8 500.3L505.6 462.7Z" fill="#c06291" stroke="#c06291"></path><path d="M395.4 102.3L392.4 193L509.6 169Z" fill="#7d3258" stroke="#7d3258"></path><path d="M248.9 177L222.7 267.7L294.9 251.7Z" fill="#a44e79" stroke="#a44e79"></path><path d="M490.6 37.7L509.6 169L518.6 164.3Z" fill="#ea80b5" stroke="#ea80b5"></path><path d="M248.9 177L294.9 251.7L340.2 182Z" fill="#ea80b5" stroke="#ea80b5"></path><path d="M247.9 323.3L218.7 425L274.9 422Z" fill="#a44e79" stroke="#a44e79"></path><path d="M673.3 237.7L644.1 228L628.1 303.3Z" fill="#f98ac1" stroke="#f98ac1"></path><path d="M628.1 303.3L644.1 228L588.1 288.7Z" fill="#ce6c9c" stroke="#ce6c9c"></path><path d="M354.2 115.3L268.9 156.3L340.2 182Z" fill="#7d3258" stroke="#7d3258"></path><path d="M268.9 156.3L248.9 177L340.2 182Z" fill="#ea80b5" stroke="#ea80b5"></path><path d="M656.3 464.7L644.1 372L600.1 445.7Z" fill="#7d3258" stroke="#7d3258"></path><path d="M644.1 372L669.3 364.3L628.1 303.3Z" fill="#b25885" stroke="#b25885"></path><path d="M185.7 341.3L218.7 425L247.9 323.3Z" fill="#b25885" stroke="#b25885"></path><path d="M274.9 422L234.7 481.7L310.9 483.7Z" fill="#97456e" stroke="#97456e"></path><path d="M669.3 364.3L673.3 237.7L628.1 303.3Z" fill="#b25885" stroke="#b25885"></path><path d="M644.1 228L620.1 121.3L586.8 164Z" fill="#70294d" stroke="#70294d"></path><path d="M316.2 541.3L405.4 460.7L310.9 483.7Z" fill="#ea80b5" stroke="#ea80b5"></path><path d="M316.2 541.3L435.4 567.3L405.4 460.7Z" fill="#dc76a8" stroke="#dc76a8"></path><path d="M488.6 515.3L547.8 600L552.8 500.3Z" fill="#c06291" stroke="#c06291"></path><path d="M222.7 267.7L185.7 341.3L247.9 323.3Z" fill="#f98ac1" stroke="#f98ac1"></path><path d="M132.5 276.7L185.7 341.3L222.7 267.7Z" fill="#7d3258" stroke="#7d3258"></path><path d="M256.9 551.3L316.2 541.3L310.9 483.7Z" fill="#97456e" stroke="#97456e"></path><path d="M170.5 154.3L194.7 233L248.9 177Z" fill="#dc76a8" stroke="#dc76a8"></path><path d="M248.9 177L194.7 233L222.7 267.7Z" fill="#ea80b5" stroke="#ea80b5"></path><path d="M218.7 425L234.7 481.7L274.9 422Z" fill="#ea80b5" stroke="#ea80b5"></path><path d="M204.7 497.3L234.7 481.7L218.7 425Z" fill="#b25885" stroke="#b25885"></path><path d="M653.1 555.3L656.3 464.7L588.8 469.7Z" fill="#70294d" stroke="#70294d"></path><path d="M588.8 469.7L656.3 464.7L600.1 445.7Z" fill="#97456e" stroke="#97456e"></path><path d="M653.1 555.3L588.8 469.7L552.8 500.3Z" fill="#7d3258" stroke="#7d3258"></path><path d="M586.8 164L620.1 121.3L547.8 137.3Z" fill="#7d3258" stroke="#7d3258"></path><path d="M405.4 35.7L365.2 48.7L395.4 102.3Z" fill="#8a3b63" stroke="#8a3b63"></path><path d="M699.3 163.3L620.1 121.3L644.1 228Z" fill="#b25885" stroke="#b25885"></path><path d="M395.4 102.3L365.2 48.7L354.2 115.3Z" fill="#ce6c9c" stroke="#ce6c9c"></path><path d="M354.2 115.3L303.9 52.7L268.9 156.3Z" fill="#97456e" stroke="#97456e"></path><path d="M192.7 106.3L170.5 154.3L248.9 177Z" fill="#7d3258" stroke="#7d3258"></path><path d="M405.4 35.7L395.4 102.3L490.6 37.7Z" fill="#70294d" stroke="#70294d"></path><path d="M316.2 541.3L421.4 600L435.4 567.3Z" fill="#f98ac1" stroke="#f98ac1"></path><path d="M435.4 567.3L511.6 600L488.6 515.3Z" fill="#c06291" stroke="#c06291"></path><path d="M490.6 37.7L518.6 164.3L547.8 137.3Z" fill="#7d3258" stroke="#7d3258"></path><path d="M561.8 56.7L490.6 37.7L547.8 137.3Z" fill="#ce6c9c" stroke="#ce6c9c"></path><path d="M656.3 464.7L715.3 379L669.3 364.3Z" fill="#f98ac1" stroke="#f98ac1"></path><path d="M779.5 329.3L753.5 240.7L673.3 237.7Z" fill="#ce6c9c" stroke="#ce6c9c"></path><path d="M620.1 121.3L561.8 56.7L547.8 137.3Z" fill="#70294d" stroke="#70294d"></path><path d="M421.4 600L511.6 600L435.4 567.3Z" fill="#a44e79" stroke="#a44e79"></path><path d="M234.7 481.7L256.9 551.3L310.9 483.7Z" fill="#f98ac1" stroke="#f98ac1"></path><path d="M316.2 541.3L324.2 600L421.4 600Z" fill="#ce6c9c" stroke="#ce6c9c"></path><path d="M169.5 501.7L204.7 497.3L218.7 425Z" fill="#7d3258" stroke="#7d3258"></path><path d="M204.7 497.3L256.9 551.3L234.7 481.7Z" fill="#8a3b63" stroke="#8a3b63"></path><path d="M314.2 0L303.9 52.7L365.2 48.7Z" fill="#a44e79" stroke="#a44e79"></path><path d="M365.2 48.7L303.9 52.7L354.2 115.3Z" fill="#b25885" stroke="#b25885"></path><path d="M511.6 600L547.8 600L488.6 515.3Z" fill="#f98ac1" stroke="#f98ac1"></path><path d="M673.3 237.7L699.3 163.3L644.1 228Z" fill="#dc76a8" stroke="#dc76a8"></path><path d="M620.1 121.3L651.1 55.7L561.8 56.7Z" fill="#c06291" stroke="#c06291"></path><path d="M718.3 197L699.3 163.3L673.3 237.7Z" fill="#7d3258" stroke="#7d3258"></path><path d="M256.9 551.3L324.2 600L316.2 541.3Z" fill="#7d3258" stroke="#7d3258"></path><path d="M753.5 240.7L718.3 197L673.3 237.7Z" fill="#97456e" stroke="#97456e"></path><path d="M143.5 205L132.5 276.7L194.7 233Z" fill="#a44e79" stroke="#a44e79"></path><path d="M194.7 233L132.5 276.7L222.7 267.7Z" fill="#ea80b5" stroke="#ea80b5"></path><path d="M117.5 428L169.5 501.7L218.7 425Z" fill="#97456e" stroke="#97456e"></path><path d="M656.3 464.7L733.5 412L715.3 379Z" fill="#f98ac1" stroke="#f98ac1"></path><path d="M779.5 329.3L673.3 237.7L669.3 364.3Z" fill="#8a3b63" stroke="#8a3b63"></path><path d="M780.5 481.7L733.5 412L656.3 464.7Z" fill="#f98ac1" stroke="#f98ac1"></path><path d="M200.7 101.7L248.9 177L268.9 156.3Z" fill="#ea80b5" stroke="#ea80b5"></path><path d="M170.5 154.3L143.5 205L194.7 233Z" fill="#b25885" stroke="#b25885"></path><path d="M303.9 52.7L200.7 101.7L268.9 156.3Z" fill="#ea80b5" stroke="#ea80b5"></path><path d="M490.6 37.7L391.4 0L405.4 35.7Z" fill="#ce6c9c" stroke="#ce6c9c"></path><path d="M405.4 35.7L391.4 0L365.2 48.7Z" fill="#c06291" stroke="#c06291"></path><path d="M303.9 52.7L205.7 0L200.7 101.7Z" fill="#c06291" stroke="#c06291"></path><path d="M515.6 0L391.4 0L490.6 37.7Z" fill="#70294d" stroke="#70294d"></path><path d="M103.2 283.7L116.5 308.3L132.5 276.7Z" fill="#f98ac1" stroke="#f98ac1"></path><path d="M132.5 276.7L116.5 308.3L185.7 341.3Z" fill="#dc76a8" stroke="#dc76a8"></path><path d="M622.1 600L653.1 555.3L552.8 500.3Z" fill="#f98ac1" stroke="#f98ac1"></path><path d="M200.7 101.7L192.7 106.3L248.9 177Z" fill="#a44e79" stroke="#a44e79"></path><path d="M57.2 161.3L76.2 209L143.5 205Z" fill="#8a3b63" stroke="#8a3b63"></path><path d="M204.7 497.3L204.7 600L256.9 551.3Z" fill="#ce6c9c" stroke="#ce6c9c"></path><path d="M256.9 551.3L250.9 600L324.2 600Z" fill="#ea80b5" stroke="#ea80b5"></path><path d="M117.5 428L218.7 425L185.7 341.3Z" fill="#7d3258" stroke="#7d3258"></path><path d="M779.5 329.3L669.3 364.3L715.3 379Z" fill="#c06291" stroke="#c06291"></path><path d="M718.3 197L741.5 185L699.3 163.3Z" fill="#97456e" stroke="#97456e"></path><path d="M580.8 0L515.6 0L561.8 56.7Z" fill="#dc76a8" stroke="#dc76a8"></path><path d="M561.8 56.7L515.6 0L490.6 37.7Z" fill="#7d3258" stroke="#7d3258"></path><path d="M753.5 240.7L741.5 185L718.3 197Z" fill="#f98ac1" stroke="#f98ac1"></path><path d="M709.3 82.7L651.1 55.7L620.1 121.3Z" fill="#8a3b63" stroke="#8a3b63"></path><path d="M76.2 209L103.2 283.7L132.5 276.7Z" fill="#8a3b63" stroke="#8a3b63"></path><path d="M116.5 308.3L117.5 428L185.7 341.3Z" fill="#a44e79" stroke="#a44e79"></path><path d="M76.2 209L132.5 276.7L143.5 205Z" fill="#b25885" stroke="#b25885"></path><path d="M103.2 283.7L100.2 307.3L116.5 308.3Z" fill="#97456e" stroke="#97456e"></path><path d="M547.8 600L622.1 600L552.8 500.3Z" fill="#7d3258" stroke="#7d3258"></path><path d="M709.3 82.7L620.1 121.3L699.3 163.3Z" fill="#97456e" stroke="#97456e"></path><path d="M95.2 421L117.5 428L116.5 308.3Z" fill="#b25885" stroke="#b25885"></path><path d="M204.7 600L250.9 600L256.9 551.3Z" fill="#ce6c9c" stroke="#ce6c9c"></path><path d="M391.4 0L314.2 0L365.2 48.7Z" fill="#f98ac1" stroke="#f98ac1"></path><path d="M200.7 101.7L159.5 77.7L192.7 106.3Z" fill="#f98ac1" stroke="#f98ac1"></path><path d="M733.5 412L779.5 329.3L715.3 379Z" fill="#8a3b63" stroke="#8a3b63"></path><path d="M753.5 240.7L798.8 230L741.5 185Z" fill="#ce6c9c" stroke="#ce6c9c"></path><path d="M668.3 600L704.3 540.3L653.1 555.3Z" fill="#a44e79" stroke="#a44e79"></path><path d="M653.1 555.3L704.3 540.3L656.3 464.7Z" fill="#c06291" stroke="#c06291"></path><path d="M849.8 404L825.8 329.3L779.5 329.3Z" fill="#dc76a8" stroke="#dc76a8"></path><path d="M612.1 0L580.8 0L561.8 56.7Z" fill="#b25885" stroke="#b25885"></path><path d="M314.2 0L284.9 0L303.9 52.7Z" fill="#ce6c9c" stroke="#ce6c9c"></path><path d="M100.2 307.3L95.2 421L116.5 308.3Z" fill="#70294d" stroke="#70294d"></path><path d="M117.5 428L111.5 513.3L169.5 501.7Z" fill="#f98ac1" stroke="#f98ac1"></path><path d="M169.5 501.7L204.7 600L204.7 497.3Z" fill="#8a3b63" stroke="#8a3b63"></path><path d="M763.5 123.3L709.3 82.7L699.3 163.3Z" fill="#c06291" stroke="#c06291"></path><path d="M651.1 55.7L612.1 0L561.8 56.7Z" fill="#f98ac1" stroke="#f98ac1"></path><path d="M702.3 0L612.1 0L651.1 55.7Z" fill="#ea80b5" stroke="#ea80b5"></path><path d="M622.1 600L668.3 600L653.1 555.3Z" fill="#8a3b63" stroke="#8a3b63"></path><path d="M156.5 600L204.7 600L169.5 501.7Z" fill="#dc76a8" stroke="#dc76a8"></path><path d="M205.7 0L159.5 77.7L200.7 101.7Z" fill="#8a3b63" stroke="#8a3b63"></path><path d="M192.7 106.3L159.5 77.7L170.5 154.3Z" fill="#97456e" stroke="#97456e"></path><path d="M779.5 329.3L798.8 230L753.5 240.7Z" fill="#c06291" stroke="#c06291"></path><path d="M741.5 185L763.5 123.3L699.3 163.3Z" fill="#70294d" stroke="#70294d"></path><path d="M103.2 283.7L0 313.3L100.2 307.3Z" fill="#c06291" stroke="#c06291"></path><path d="M0 397L59.2 478.7L95.2 421Z" fill="#7d3258" stroke="#7d3258"></path><path d="M57.2 161.3L143.5 205L170.5 154.3Z" fill="#ce6c9c" stroke="#ce6c9c"></path><path d="M798.8 230L763.5 123.3L741.5 185Z" fill="#ea80b5" stroke="#ea80b5"></path><path d="M709.3 82.7L702.3 0L651.1 55.7Z" fill="#a44e79" stroke="#a44e79"></path><path d="M59.2 478.7L111.5 513.3L117.5 428Z" fill="#ea80b5" stroke="#ea80b5"></path><path d="M704.3 540.3L780.5 481.7L656.3 464.7Z" fill="#70294d" stroke="#70294d"></path><path d="M779.5 329.3L825.8 329.3L798.8 230Z" fill="#97456e" stroke="#97456e"></path><path d="M730.5 562.3L780.5 481.7L704.3 540.3Z" fill="#ea80b5" stroke="#ea80b5"></path><path d="M668.3 600L730.5 562.3L704.3 540.3Z" fill="#dc76a8" stroke="#dc76a8"></path><path d="M849.8 404L779.5 329.3L733.5 412Z" fill="#b25885" stroke="#b25885"></path><path d="M284.9 0L205.7 0L303.9 52.7Z" fill="#7d3258" stroke="#7d3258"></path><path d="M159.5 77.7L57.2 161.3L170.5 154.3Z" fill="#a44e79" stroke="#a44e79"></path><path d="M111.5 513.3L156.5 600L169.5 501.7Z" fill="#97456e" stroke="#97456e"></path><path d="M35.2 82.7L57.2 161.3L159.5 77.7Z" fill="#7d3258" stroke="#7d3258"></path><path d="M0 397L95.2 421L100.2 307.3Z" fill="#f98ac1" stroke="#f98ac1"></path><path d="M0 313.3L103.2 283.7L0 262.7Z" fill="#dc76a8" stroke="#dc76a8"></path><path d="M95.2 421L59.2 478.7L117.5 428Z" fill="#97456e" stroke="#97456e"></path><path d="M111.5 513.3L101.2 600L156.5 600Z" fill="#97456e" stroke="#97456e"></path><path d="M758.5 55.7L702.3 0L709.3 82.7Z" fill="#dc76a8" stroke="#dc76a8"></path><path d="M828.8 93.7L758.5 55.7L763.5 123.3Z" fill="#dc76a8" stroke="#dc76a8"></path><path d="M763.5 123.3L758.5 55.7L709.3 82.7Z" fill="#f98ac1" stroke="#f98ac1"></path><path d="M828.8 93.7L763.5 123.3L863.8 118.3Z" fill="#c06291" stroke="#c06291"></path><path d="M825.8 329.3L849.8 230.7L798.8 230Z" fill="#dc76a8" stroke="#dc76a8"></path><path d="M780.5 481.7L849.8 404L733.5 412Z" fill="#ce6c9c" stroke="#ce6c9c"></path><path d="M825.8 329.3L900 238.7L849.8 230.7Z" fill="#ea80b5" stroke="#ea80b5"></path><path d="M865.8 491.7L849.8 404L780.5 481.7Z" fill="#97456e" stroke="#97456e"></path><path d="M668.3 600L751.5 600L730.5 562.3Z" fill="#f98ac1" stroke="#f98ac1"></path><path d="M730.5 562.3L809.8 546.3L780.5 481.7Z" fill="#f98ac1" stroke="#f98ac1"></path><path d="M0 472.7L56.2 525.3L59.2 478.7Z" fill="#dc76a8" stroke="#dc76a8"></path><path d="M59.2 478.7L56.2 525.3L111.5 513.3Z" fill="#f98ac1" stroke="#f98ac1"></path><path d="M856.8 0L734.5 0L758.5 55.7Z" fill="#dc76a8" stroke="#dc76a8"></path><path d="M758.5 55.7L734.5 0L702.3 0Z" fill="#ce6c9c" stroke="#ce6c9c"></path><path d="M205.7 0L138.5 0L159.5 77.7Z" fill="#70294d" stroke="#70294d"></path><path d="M0 262.7L103.2 283.7L76.2 209Z" fill="#8a3b63" stroke="#8a3b63"></path><path d="M751.5 600L809.8 546.3L730.5 562.3Z" fill="#c06291" stroke="#c06291"></path><path d="M56.2 525.3L101.2 600L111.5 513.3Z" fill="#a44e79" stroke="#a44e79"></path><path d="M0 201L76.2 209L57.2 161.3Z" fill="#c06291" stroke="#c06291"></path><path d="M0 201L0 262.7L76.2 209Z" fill="#70294d" stroke="#70294d"></path><path d="M0 313.3L0 397L100.2 307.3Z" fill="#7d3258" stroke="#7d3258"></path><path d="M863.8 118.3L763.5 123.3L798.8 230Z" fill="#7d3258" stroke="#7d3258"></path><path d="M0 138.3L0 201L57.2 161.3Z" fill="#70294d" stroke="#70294d"></path><path d="M809.8 546.3L865.8 491.7L780.5 481.7Z" fill="#ce6c9c" stroke="#ce6c9c"></path><path d="M849.8 404L900 348.3L825.8 329.3Z" fill="#ea80b5" stroke="#ea80b5"></path><path d="M0 397L0 472.7L59.2 478.7Z" fill="#b25885" stroke="#b25885"></path><path d="M56.2 525.3L0 600L101.2 600Z" fill="#c06291" stroke="#c06291"></path><path d="M900 418L900 348.3L849.8 404Z" fill="#ce6c9c" stroke="#ce6c9c"></path><path d="M849.8 230.7L863.8 118.3L798.8 230Z" fill="#ce6c9c" stroke="#ce6c9c"></path><path d="M95.2 0L35.2 82.7L159.5 77.7Z" fill="#a44e79" stroke="#a44e79"></path><path d="M138.5 0L95.2 0L159.5 77.7Z" fill="#b25885" stroke="#b25885"></path><path d="M900 348.3L900 238.7L825.8 329.3Z" fill="#a44e79" stroke="#a44e79"></path><path d="M900 202L863.8 118.3L849.8 230.7Z" fill="#7d3258" stroke="#7d3258"></path><path d="M828.8 93.7L856.8 0L758.5 55.7Z" fill="#b25885" stroke="#b25885"></path><path d="M35.2 82.7L0 138.3L57.2 161.3Z" fill="#7d3258" stroke="#7d3258"></path><path d="M900 433.7L900 418L849.8 404Z" fill="#a44e79" stroke="#a44e79"></path><path d="M900 238.7L900 202L849.8 230.7Z" fill="#8a3b63" stroke="#8a3b63"></path><path d="M865.8 491.7L900 433.7L849.8 404Z" fill="#b25885" stroke="#b25885"></path><path d="M0 0L0 94.7L35.2 82.7Z" fill="#70294d" stroke="#70294d"></path><path d="M35.2 82.7L0 94.7L0 138.3Z" fill="#ea80b5" stroke="#ea80b5"></path><path d="M0 472.7L0 544.3L56.2 525.3Z" fill="#ea80b5" stroke="#ea80b5"></path><path d="M751.5 600L852.8 600L809.8 546.3Z" fill="#dc76a8" stroke="#dc76a8"></path><path d="M809.8 546.3L900 563.3L865.8 491.7Z" fill="#c06291" stroke="#c06291"></path><path d="M865.8 491.7L900 563.3L900 433.7Z" fill="#70294d" stroke="#70294d"></path><path d="M900 202L900 109.3L863.8 118.3Z" fill="#70294d" stroke="#70294d"></path><path d="M863.8 118.3L900 40.7L828.8 93.7Z" fill="#c06291" stroke="#c06291"></path><path d="M0 544.3L0 600L56.2 525.3Z" fill="#f98ac1" stroke="#f98ac1"></path><path d="M852.8 600L900 563.3L809.8 546.3Z" fill="#8a3b63" stroke="#8a3b63"></path><path d="M900 40.7L856.8 0L828.8 93.7Z" fill="#7d3258" stroke="#7d3258"></path><path d="M900 109.3L900 40.7L863.8 118.3Z" fill="#7d3258" stroke="#7d3258"></path><path d="M95.2 0L0 0L35.2 82.7Z" fill="#ce6c9c" stroke="#ce6c9c"></path><path d="M852.8 600L900 600L900 563.3Z" fill="#a44e79" stroke="#a44e79"></path><path d="M900 40.7L900 0L856.8 0Z" fill="#b25885" stroke="#b25885"></path></g></svg>