<?xml version="1.0" standalone="no"?><svg xmlns:xlink="http://www.w3.org/1999/xlink" xmlns="http://www.w3.org/2000/svg" viewBox="0 0 1000 562.5" preserveAspectRatio="xMaxYMax slice"><g transform="scale(0.8445945945945946)"><rect x="0" y="0" width="1184" height="666" fill="#56332b"/><rect x="0" y="0" width="74" height="74" fill="#452923"/><g transform="translate(0,0) scale(3.7) rotate(0)"><path fill-rule="evenodd" clip-rule="evenodd" d="M10 20C15.5228 20 20 15.5228 20 10C20 4.47715 15.5228 0 10 0C4.47715 0 0 4.47715 0 10C0 15.5228 4.47715 20 10 20ZM10 17C13.866 17 17 13.866 17 10C17 6.13401 13.866 3 10 3C6.13401 3 3 6.13401 3 10C3 13.866 6.13401 17 10 17Z" fill="#e4c19a"/></g><rect x="74" y="0" width="74" height="74" fill="#dcb994"/><path d="M 74 0 A 74 74 0 0 1 148 74 L 74 74L74 0" fill="#3d241f"/><rect x="148" y="0" width="74" height="74" fill="#5d3a30"/><rect x="148" y="0" width="74" height="74" fill="#341f1b"/><rect x="222" y="0" width="74" height="74" fill="#b08d71"/><g transform="translate(222,0) scale(3.7) rotate(0)"><path d="M10 0H20V10L10 20H0V10L10 0Z" fill="#4c2d26"/></g><rect x="296" y="0" width="74" height="74" fill="#bc997b"/><rect x="296" y="0" width="74" height="74" fill="#5c392f"/><rect x="370" y="0" width="74" height="74" fill="#c5a282"/><g transform="translate(370,0) scale(3.7) rotate(0)"><path fill-rule="evenodd" clip-rule="evenodd" d="M10 20C15.5228 20 20 15.5228 20 10C20 4.47715 15.5228 0 10 0C4.47715 0 0 4.47715 0 10C0 15.5228 4.47715 20 10 20ZM10 17C13.866 17 17 13.866 17 10C17 6.13401 13.866 3 10 3C6.13401 3 3 6.13401 3 10C3 13.866 6.13401 17 10 17Z" fill="#3e2520"/></g><rect x="444" y="0" width="74" height="74" fill="#d0ad8a"/><rect x="444" y="0" width="74" height="74" fill="#38221d"/><rect x="518" y="0" width="74" height="74" fill="#4d2d27"/><rect x="518" y="0" width="74" height="74" fill="#c3a081"/><rect x="592" y="0" width="74" height="74" fill="#3f2520"/><g transform="translate(592,0) scale(3.7) rotate(0)"><path fill-rule="evenodd" clip-rule="evenodd" d="M10 20C15.5228 20 20 15.5228 20 10C20 4.47715 15.5228 0 10 0C4.47715 0 0 4.47715 0 10C0 15.5228 4.47715 20 10 20ZM10 17C13.866 17 17 13.866 17 10C17 6.13401 13.866 3 10 3C6.13401 3 3 6.13401 3 10C3 13.866 6.13401 17 10 17Z" fill="#35201c"/></g><rect x="666" y="0" width="74" height="74" fill="#492c25"/><path d="M 666 0 A 74 74 0 0 1  740 74 L 666 0 A 74 74 0 0 0 740 74" fill="#4d2e27"/><rect x="740" y="0" width="74" height="74" fill="#482b25"/><g transform="translate(740,0) scale(3.7) rotate(0)"><path d="M10 0H20V10L10 20H0V10L10 0Z" fill="#6a473b"/></g><rect x="814" y="0" width="74" height="74" fill="#96735d"/><rect x="814" y="0" width="74" height="74" fill="#af8c71"/><rect x="888" y="0" width="74" height="74" fill="#856250"/><path d="M 888 74 A 74 74 0 0 1  962 0 L 962 74L888 74" fill="#4d2e27"/><rect x="962" y="0" width="74" height="74" fill="#4b2d26"/><path d="M 962 74 A 74 74 0 0 0 1036 0 L 962 0L962 74" fill="#d5b28e"/><rect x="1036" y="0" width="74" height="74" fill="#a27f67"/><circle cx="1073" cy="37" r="37" fill="#36201c"/><rect x="1110" y="0" width="74" height="74" fill="#4c2d26"/><path d="M 1110 0 A 74 74 0 0 0 1184 74 L 1184 0L1110 0" fill="#321e1a"/><rect x="0" y="74" width="74" height="74" fill="#54322a"/><path d="M 0 148 A 74 74 0 0 1  74 74 L 0 148 A 74 74 0 0 0 74 74" fill="#b28f73"/><rect x="74" y="74" width="74" height="74" fill="#9a7761"/><g transform="translate(74,74) scale(3.7) rotate(0)"><path d="M10 0H20V10L10 20H0V10L10 0Z" fill="#98755f"/></g><rect x="148" y="74" width="74" height="74" fill="#5b382f"/><rect x="148" y="74" width="74" height="74" fill="#36211c"/><rect x="222" y="74" width="74" height="74" fill="#35201c"/><g transform="translate(222,74) scale(3.7) rotate(0)"><path d="M10 0L20 10L10 20L0 10L10 0Z" fill="#331e1a"/></g><rect x="296" y="74" width="74" height="74" fill="#38211d"/><g transform="translate(296,74) scale(3.7) rotate(0)"><path d="M10 0H20L0 20V10L10 0Z" fill="#331f1b"/><path d="M20 10V20H10L20 10Z" fill="#331f1b"/></g><rect x="370" y="74" width="74" height="74" fill="#765344"/><g transform="translate(370,74) scale(3.7) rotate(0)"><path d="M10 0L20 10L10 20L0 10L10 0Z" fill="#472a24"/></g><rect x="444" y="74" width="74" height="74" fill="#a8856b"/><g transform="translate(444,74) scale(3.7) rotate(0)"><path fill-rule="evenodd" clip-rule="evenodd" d="M10 20C15.5228 20 20 15.5228 20 10C20 4.47715 15.5228 0 10 0C4.47715 0 0 4.47715 0 10C0 15.5228 4.47715 20 10 20ZM10 17C13.866 17 17 13.866 17 10C17 6.13401 13.866 3 10 3C6.13401 3 3 6.13401 3 10C3 13.866 6.13401 17 10 17Z" fill="#39221d"/></g><rect x="518" y="74" width="74" height="74" fill="#6d4a3d"/><g transform="translate(518,74) scale(3.7) rotate(0)"><path fill-rule="evenodd" clip-rule="evenodd" d="M10 20C15.5228 20 20 15.5228 20 10C20 4.47715 15.5228 0 10 0C4.47715 0 0 4.47715 0 10C0 15.5228 4.47715 20 10 20ZM10 17C13.866 17 17 13.866 17 10C17 6.13401 13.866 3 10 3C6.13401 3 3 6.13401 3 10C3 13.866 6.13401 17 10 17Z" fill="#e4c19a"/></g><rect x="592" y="74" width="74" height="74" fill="#38211d"/><circle cx="629" cy="111" r="37" fill="#83604e"/><rect x="666" y="74" width="74" height="74" fill="#3f2620"/><g transform="translate(666,74) scale(3.7) rotate(0)"><path d="M10 0H20L0 20V10L10 0Z" fill="#b89578"/><path d="M20 10V20H10L20 10Z" fill="#b89578"/></g><rect x="740" y="74" width="74" height="74" fill="#785546"/><rect x="740" y="74" width="74" height="74" fill="#54322a"/><rect x="814" y="74" width="74" height="74" fill="#412721"/><g transform="translate(814,74) scale(3.7) rotate(0)"><path d="M10 0H20L0 20V10L10 0Z" fill="#37211c"/><path d="M20 10V20H10L20 10Z" fill="#37211c"/></g><rect x="888" y="74" width="74" height="74" fill="#4e2e27"/><path d="M 888 74 A 74 74 0 0 1 962 148 L 888 148L888 74" fill="#3e2520"/><rect x="962" y="74" width="74" height="74" fill="#37211c"/><g transform="translate(962,74) scale(3.7) rotate(0)"><path d="M10 0H20L0 20V10L10 0Z" fill="#472a24"/><path d="M20 10V20H10L20 10Z" fill="#472a24"/></g><rect x="1036" y="74" width="74" height="74" fill="#36201c"/><circle cx="1073" cy="111" r="37" fill="#6d4a3d"/><rect x="1110" y="74" width="74" height="74" fill="#6e4b3e"/><path d="M 1110 148 A 74 74 0 0 0 1184 74 L 1110 74L1110 148" fill="#523129"/><rect x="0" y="148" width="74" height="74" fill="#3d251f"/><rect x="0" y="148" width="74" height="74" fill="#6f4c3f"/><rect x="74" y="148" width="74" height="74" fill="#39221d"/><g transform="translate(74,148) scale(3.7) rotate(0)"><path d="M10 0L20 10L10 20L0 10L10 0Z" fill="#4c2d26"/></g><rect x="148" y="148" width="74" height="74" fill="#452923"/><path d="M 148 222 A 74 74 0 0 0 222 148 L 148 148L148 222" fill="#4e2f27"/><rect x="222" y="148" width="74" height="74" fill="#e0bd97"/><path d="M 222 222 A 74 74 0 0 1  296 148 L 296 222L222 222" fill="#ddba95"/><rect x="296" y="148" width="74" height="74" fill="#4c2d26"/><circle cx="333" cy="185" r="37" fill="#523129"/><rect x="370" y="148" width="74" height="74" fill="#ab886e"/><rect x="370" y="148" width="74" height="74" fill="#502f28"/><rect x="444" y="148" width="74" height="74" fill="#412721"/><g transform="translate(444,148) scale(3.7) rotate(0)"><path d="M10 0H20V10L10 20H0V10L10 0Z" fill="#dab793"/></g><rect x="518" y="148" width="74" height="74" fill="#8f6c57"/><g transform="translate(518,148) scale(3.7) rotate(0)"><path d="M10 0H20V10L10 20H0V10L10 0Z" fill="#482b25"/></g><rect x="592" y="148" width="74" height="74" fill="#442822"/><g transform="translate(592,148) scale(3.7) rotate(0)"><path d="M10 0H20L0 20V10L10 0Z" fill="#331e1a"/><path d="M20 10V20H10L20 10Z" fill="#331e1a"/></g><rect x="666" y="148" width="74" height="74" fill="#664338"/><circle cx="703" cy="185" r="37" fill="#523029"/><rect x="740" y="148" width="74" height="74" fill="#4e2e27"/><g transform="translate(740,148) scale(3.7) rotate(0)"><path fill-rule="evenodd" clip-rule="evenodd" d="M10 20C15.5228 20 20 15.5228 20 10C20 4.47715 15.5228 0 10 0C4.47715 0 0 4.47715 0 10C0 15.5228 4.47715 20 10 20ZM10 17C13.866 17 17 13.866 17 10C17 6.13401 13.866 3 10 3C6.13401 3 3 6.13401 3 10C3 13.866 6.13401 17 10 17Z" fill="#b18e72"/></g><rect x="814" y="148" width="74" height="74" fill="#7e5b4b"/><g transform="translate(814,148) scale(3.7) rotate(0)"><path d="M10 0L20 10L10 20L0 10L10 0Z" fill="#3a221e"/></g><rect x="888" y="148" width="74" height="74" fill="#caa786"/><g transform="translate(888,148) scale(3.7) rotate(0)"><path d="M10 0H20V10L10 20H0V10L10 0Z" fill="#3d241f"/></g><rect x="962" y="148" width="74" height="74" fill="#9d7a63"/><g transform="translate(962,148) scale(3.7) rotate(0)"><path fill-rule="evenodd" clip-rule="evenodd" d="M10 20C15.5228 20 20 15.5228 20 10C20 4.47715 15.5228 0 10 0C4.47715 0 0 4.47715 0 10C0 15.5228 4.47715 20 10 20ZM10 17C13.866 17 17 13.866 17 10C17 6.13401 13.866 3 10 3C6.13401 3 3 6.13401 3 10C3 13.866 6.13401 17 10 17Z" fill="#c8a585"/></g><rect x="1036" y="148" width="74" height="74" fill="#724f41"/><path d="M 1036 148 A 74 74 0 0 0 1110 222 L 1110 148L1036 148" fill="#7e5b4a"/><rect x="1110" y="148" width="74" height="74" fill="#452923"/><g transform="translate(1110,148) scale(3.7) rotate(0)"><path d="M10 0H20L0 20V10L10 0Z" fill="#6b483c"/><path d="M20 10V20H10L20 10Z" fill="#6b483c"/></g><rect x="0" y="222" width="74" height="74" fill="#a27f67"/><path d="M 0 222 A 74 74 0 0 1 74 296 L 0 296L0 222" fill="#704d40"/><rect x="74" y="222" width="74" height="74" fill="#b69376"/><g transform="translate(74,222) scale(3.7) rotate(0)"><path d="M10 0H20L0 20V10L10 0Z" fill="#dcb994"/><path d="M20 10V20H10L20 10Z" fill="#dcb994"/></g><rect x="148" y="222" width="74" height="74" fill="#e9c69e"/><g transform="translate(148,222) scale(3.7) rotate(0)"><path d="M10 0H20V10L10 20H0V10L10 0Z" fill="#53312a"/></g><rect x="222" y="222" width="74" height="74" fill="#402621"/><g transform="translate(222,222) scale(3.7) rotate(0)"><path d="M10 0L20 10L10 20L0 10L10 0Z" fill="#341f1b"/></g><rect x="296" y="222" width="74" height="74" fill="#442923"/><rect x="296" y="222" width="74" height="74" fill="#ad8a6f"/><rect x="370" y="222" width="74" height="74" fill="#d0ad8a"/><circle cx="407" cy="259" r="37" fill="#4c2d26"/><rect x="444" y="222" width="74" height="74" fill="#ac896f"/><path d="M 444 296 A 74 74 0 0 1  518 222 L 444 296 A 74 74 0 0 0 518 222" fill="#492b25"/><rect x="518" y="222" width="74" height="74" fill="#755244"/><g transform="translate(518,222) scale(3.7) rotate(0)"><path fill-rule="evenodd" clip-rule="evenodd" d="M10 20C15.5228 20 20 15.5228 20 10C20 4.47715 15.5228 0 10 0C4.47715 0 0 4.47715 0 10C0 15.5228 4.47715 20 10 20ZM10 17C13.866 17 17 13.866 17 10C17 6.13401 13.866 3 10 3C6.13401 3 3 6.13401 3 10C3 13.866 6.13401 17 10 17Z" fill="#331f1a"/></g><rect x="592" y="222" width="74" height="74" fill="#3e2520"/><g transform="translate(592,222) scale(3.7) rotate(0)"><path d="M10 0H20L0 20V10L10 0Z" fill="#513028"/><path d="M20 10V20H10L20 10Z" fill="#513028"/></g><rect x="666" y="222" width="74" height="74" fill="#492c25"/><path d="M 666 296 A 74 74 0 0 0 740 222 L 666 222L666 296" fill="#4f2f27"/><rect x="740" y="222" width="74" height="74" fill="#523129"/><g transform="translate(740,222) scale(3.7) rotate(0)"><path fill-rule="evenodd" clip-rule="evenodd" d="M10 20C15.5228 20 20 15.5228 20 10C20 4.47715 15.5228 0 10 0C4.47715 0 0 4.47715 0 10C0 15.5228 4.47715 20 10 20ZM10 17C13.866 17 17 13.866 17 10C17 6.13401 13.866 3 10 3C6.13401 3 3 6.13401 3 10C3 13.866 6.13401 17 10 17Z" fill="#896653"/></g><rect x="814" y="222" width="74" height="74" fill="#37211c"/><g transform="translate(814,222) scale(3.7) rotate(0)"><path fill-rule="evenodd" clip-rule="evenodd" d="M10 20C15.5228 20 20 15.5228 20 10C20 4.47715 15.5228 0 10 0C4.47715 0 0 4.47715 0 10C0 15.5228 4.47715 20 10 20ZM10 17C13.866 17 17 13.866 17 10C17 6.13401 13.866 3 10 3C6.13401 3 3 6.13401 3 10C3 13.866 6.13401 17 10 17Z" fill="#5e3b31"/></g><rect x="888" y="222" width="74" height="74" fill="#906d59"/><g transform="translate(888,222) scale(3.7) rotate(0)"><path d="M10 0H20V10L10 20H0V10L10 0Z" fill="#7f5c4b"/></g><rect x="962" y="222" width="74" height="74" fill="#e4c19a"/><circle cx="999" cy="259" r="37" fill="#ecc9a1"/><rect x="1036" y="222" width="74" height="74" fill="#83604e"/><g transform="translate(1036,222) scale(3.7) rotate(0)"><path d="M10 0H20V10L10 20H0V10L10 0Z" fill="#a27f66"/></g><rect x="1110" y="222" width="74" height="74" fill="#e9c69e"/><g transform="translate(1110,222) scale(3.7) rotate(0)"><path d="M10 0H20L0 20V10L10 0Z" fill="#482b24"/><path d="M20 10V20H10L20 10Z" fill="#482b24"/></g><rect x="0" y="296" width="74" height="74" fill="#4c2d26"/><g transform="translate(0,296) scale(3.7) rotate(0)"><path d="M10 0H20L0 20V10L10 0Z" fill="#d3b08d"/><path d="M20 10V20H10L20 10Z" fill="#d3b08d"/></g><rect x="74" y="296" width="74" height="74" fill="#39221d"/><g transform="translate(74,296) scale(3.7) rotate(0)"><path d="M10 0L20 10L10 20L0 10L10 0Z" fill="#55322b"/></g><rect x="148" y="296" width="74" height="74" fill="#9e7b64"/><g transform="translate(148,296) scale(3.7) rotate(0)"><path d="M10 0H20V10L10 20H0V10L10 0Z" fill="#ab886d"/></g><rect x="222" y="296" width="74" height="74" fill="#e5c29b"/><g transform="translate(222,296) scale(3.7) rotate(0)"><path fill-rule="evenodd" clip-rule="evenodd" d="M10 20C15.5228 20 20 15.5228 20 10C20 4.47715 15.5228 0 10 0C4.47715 0 0 4.47715 0 10C0 15.5228 4.47715 20 10 20ZM10 17C13.866 17 17 13.866 17 10C17 6.13401 13.866 3 10 3C6.13401 3 3 6.13401 3 10C3 13.866 6.13401 17 10 17Z" fill="#613e34"/></g><rect x="296" y="296" width="74" height="74" fill="#c7a484"/><g transform="translate(296,296) scale(3.7) rotate(0)"><path d="M10 0H20V10L10 20H0V10L10 0Z" fill="#735041"/></g><rect x="370" y="296" width="74" height="74" fill="#523129"/><g transform="translate(370,296) scale(3.7) rotate(0)"><path d="M10 0L20 10L10 20L0 10L10 0Z" fill="#3e2520"/></g><rect x="444" y="296" width="74" height="74" fill="#755243"/><g transform="translate(444,296) scale(3.7) rotate(0)"><path d="M10 0L20 10L10 20L0 10L10 0Z" fill="#523129"/></g><rect x="518" y="296" width="74" height="74" fill="#452923"/><g transform="translate(518,296) scale(3.7) rotate(0)"><path d="M10 0H20L0 20V10L10 0Z" fill="#a27f67"/><path d="M20 10V20H10L20 10Z" fill="#a27f67"/></g><rect x="592" y="296" width="74" height="74" fill="#83604e"/><g transform="translate(592,296) scale(3.7) rotate(0)"><path d="M10 0H20V10L10 20H0V10L10 0Z" fill="#b18e73"/></g><rect x="666" y="296" width="74" height="74" fill="#84614f"/><g transform="translate(666,296) scale(3.7) rotate(0)"><path d="M10 0H20L0 20V10L10 0Z" fill="#c4a181"/><path d="M20 10V20H10L20 10Z" fill="#c4a181"/></g><rect x="740" y="296" width="74" height="74" fill="#58352d"/><g transform="translate(740,296) scale(3.7) rotate(0)"><path d="M10 0H20V10L10 20H0V10L10 0Z" fill="#462a23"/></g><rect x="814" y="296" width="74" height="74" fill="#8b6854"/><path d="M 814 370 A 74 74 0 0 0 888 296 L 814 296L814 370" fill="#55322b"/><rect x="888" y="296" width="74" height="74" fill="#3a231e"/><g transform="translate(888,296) scale(3.7) rotate(0)"><path d="M10 0L20 10L10 20L0 10L10 0Z" fill="#58352d"/></g><rect x="962" y="296" width="74" height="74" fill="#69463a"/><path d="M 962 296 A 74 74 0 0 0 1036 370 L 1036 296L962 296" fill="#59362e"/><rect x="1036" y="296" width="74" height="74" fill="#3c241f"/><g transform="translate(1036,296) scale(3.7) rotate(0)"><path d="M10 0L20 10L10 20L0 10L10 0Z" fill="#3a231e"/></g><rect x="1110" y="296" width="74" height="74" fill="#3f2620"/><g transform="translate(1110,296) scale(3.7) rotate(0)"><path d="M10 0H20V10L10 20H0V10L10 0Z" fill="#e4c19b"/></g><rect x="0" y="370" width="74" height="74" fill="#523129"/><g transform="translate(0,370) scale(3.7) rotate(0)"><path fill-rule="evenodd" clip-rule="evenodd" d="M10 20C15.5228 20 20 15.5228 20 10C20 4.47715 15.5228 0 10 0C4.47715 0 0 4.47715 0 10C0 15.5228 4.47715 20 10 20ZM10 17C13.866 17 17 13.866 17 10C17 6.13401 13.866 3 10 3C6.13401 3 3 6.13401 3 10C3 13.866 6.13401 17 10 17Z" fill="#59362d"/></g><rect x="74" y="370" width="74" height="74" fill="#a58269"/><g transform="translate(74,370) scale(3.7) rotate(0)"><path d="M10 0H20L0 20V10L10 0Z" fill="#664338"/><path d="M20 10V20H10L20 10Z" fill="#664338"/></g><rect x="148" y="370" width="74" height="74" fill="#916e59"/><rect x="148" y="370" width="74" height="74" fill="#4b2d26"/><rect x="222" y="370" width="74" height="74" fill="#462923"/><g transform="translate(222,370) scale(3.7) rotate(0)"><path d="M10 0L20 10L10 20L0 10L10 0Z" fill="#876451"/></g><rect x="296" y="370" width="74" height="74" fill="#997660"/><circle cx="333" cy="407" r="37" fill="#3f2620"/><rect x="370" y="370" width="74" height="74" fill="#5b382f"/><rect x="370" y="370" width="74" height="74" fill="#4b2c26"/><rect x="444" y="370" width="74" height="74" fill="#644136"/><g transform="translate(444,370) scale(3.7) rotate(0)"><path d="M10 0L20 10L10 20L0 10L10 0Z" fill="#3e2520"/></g><rect x="518" y="370" width="74" height="74" fill="#39221d"/><g transform="translate(518,370) scale(3.7) rotate(0)"><path d="M10 0L20 10L10 20L0 10L10 0Z" fill="#58352c"/></g><rect x="592" y="370" width="74" height="74" fill="#4d2e27"/><g transform="translate(592,370) scale(3.7) rotate(0)"><path fill-rule="evenodd" clip-rule="evenodd" d="M10 20C15.5228 20 20 15.5228 20 10C20 4.47715 15.5228 0 10 0C4.47715 0 0 4.47715 0 10C0 15.5228 4.47715 20 10 20ZM10 17C13.866 17 17 13.866 17 10C17 6.13401 13.866 3 10 3C6.13401 3 3 6.13401 3 10C3 13.866 6.13401 17 10 17Z" fill="#613e33"/></g><rect x="666" y="370" width="74" height="74" fill="#37211c"/><g transform="translate(666,370) scale(3.7) rotate(0)"><path d="M10 0H20L0 20V10L10 0Z" fill="#54322a"/><path d="M20 10V20H10L20 10Z" fill="#54322a"/></g><rect x="740" y="370" width="74" height="74" fill="#eac79f"/><g transform="translate(740,370) scale(3.7) rotate(0)"><path d="M10 0H20L0 20V10L10 0Z" fill="#472a24"/><path d="M20 10V20H10L20 10Z" fill="#472a24"/></g><rect x="814" y="370" width="74" height="74" fill="#492b25"/><path d="M 814 444 A 74 74 0 0 0 888 370 L 814 370L814 444" fill="#8c6955"/><rect x="888" y="370" width="74" height="74" fill="#5c392f"/><g transform="translate(888,370) scale(3.7) rotate(0)"><path d="M10 0H20V10L10 20H0V10L10 0Z" fill="#95725c"/></g><rect x="962" y="370" width="74" height="74" fill="#53312a"/><g transform="translate(962,370) scale(3.7) rotate(0)"><path d="M10 0L20 10L10 20L0 10L10 0Z" fill="#4b2d26"/></g><rect x="1036" y="370" width="74" height="74" fill="#755243"/><rect x="1036" y="370" width="74" height="74" fill="#37211c"/><rect x="1110" y="370" width="74" height="74" fill="#7a5747"/><path d="M 1110 370 A 74 74 0 0 1  1184 444 L 1110 370 A 74 74 0 0 0 1184 444" fill="#97745e"/><rect x="0" y="444" width="74" height="74" fill="#94715b"/><g transform="translate(0,444) scale(3.7) rotate(0)"><path d="M10 0H20V10L10 20H0V10L10 0Z" fill="#4a2c25"/></g><rect x="74" y="444" width="74" height="74" fill="#482b24"/><g transform="translate(74,444) scale(3.7) rotate(0)"><path d="M10 0H20L0 20V10L10 0Z" fill="#402621"/><path d="M20 10V20H10L20 10Z" fill="#402621"/></g><rect x="148" y="444" width="74" height="74" fill="#bd9a7c"/><g transform="translate(148,444) scale(3.7) rotate(0)"><path d="M10 0H20L0 20V10L10 0Z" fill="#8e6b57"/><path d="M20 10V20H10L20 10Z" fill="#8e6b57"/></g><rect x="222" y="444" width="74" height="74" fill="#5b382f"/><g transform="translate(222,444) scale(3.7) rotate(0)"><path fill-rule="evenodd" clip-rule="evenodd" d="M10 20C15.5228 20 20 15.5228 20 10C20 4.47715 15.5228 0 10 0C4.47715 0 0 4.47715 0 10C0 15.5228 4.47715 20 10 20ZM10 17C13.866 17 17 13.866 17 10C17 6.13401 13.866 3 10 3C6.13401 3 3 6.13401 3 10C3 13.866 6.13401 17 10 17Z" fill="#e3c09a"/></g><rect x="296" y="444" width="74" height="74" fill="#3f2620"/><g transform="translate(296,444) scale(3.7) rotate(0)"><path d="M10 0H20L0 20V10L10 0Z" fill="#341f1b"/><path d="M20 10V20H10L20 10Z" fill="#341f1b"/></g><rect x="370" y="444" width="74" height="74" fill="#523129"/><path d="M 370 444 A 74 74 0 0 0 444 518 L 444 444L370 444" fill="#3e2520"/><rect x="444" y="444" width="74" height="74" fill="#331f1b"/><rect x="444" y="444" width="74" height="74" fill="#57342c"/><rect x="518" y="444" width="74" height="74" fill="#b69376"/><rect x="518" y="444" width="74" height="74" fill="#916e59"/><rect x="592" y="444" width="74" height="74" fill="#cdaa88"/><circle cx="629" cy="481" r="37" fill="#36201c"/><rect x="666" y="444" width="74" height="74" fill="#53312a"/><g transform="translate(666,444) scale(3.7) rotate(0)"><path d="M10 0L20 10L10 20L0 10L10 0Z" fill="#54322a"/></g><rect x="740" y="444" width="74" height="74" fill="#cdaa88"/><g transform="translate(740,444) scale(3.7) rotate(0)"><path d="M10 0H20L0 20V10L10 0Z" fill="#56332b"/><path d="M20 10V20H10L20 10Z" fill="#56332b"/></g><rect x="814" y="444" width="74" height="74" fill="#3c241f"/><g transform="translate(814,444) scale(3.7) rotate(0)"><path fill-rule="evenodd" clip-rule="evenodd" d="M10 20C15.5228 20 20 15.5228 20 10C20 4.47715 15.5228 0 10 0C4.47715 0 0 4.47715 0 10C0 15.5228 4.47715 20 10 20ZM10 17C13.866 17 17 13.866 17 10C17 6.13401 13.866 3 10 3C6.13401 3 3 6.13401 3 10C3 13.866 6.13401 17 10 17Z" fill="#422721"/></g><rect x="888" y="444" width="74" height="74" fill="#c7a483"/><g transform="translate(888,444) scale(3.7) rotate(0)"><path d="M10 0L20 10L10 20L0 10L10 0Z" fill="#d7b490"/></g><rect x="962" y="444" width="74" height="74" fill="#432822"/><rect x="962" y="444" width="74" height="74" fill="#d5b28e"/><rect x="1036" y="444" width="74" height="74" fill="#4d2e27"/><g transform="translate(1036,444) scale(3.7) rotate(0)"><path d="M10 0L20 10L10 20L0 10L10 0Z" fill="#4e2e27"/></g><rect x="1110" y="444" width="74" height="74" fill="#331f1b"/><g transform="translate(1110,444) scale(3.7) rotate(0)"><path fill-rule="evenodd" clip-rule="evenodd" d="M10 20C15.5228 20 20 15.5228 20 10C20 4.47715 15.5228 0 10 0C4.47715 0 0 4.47715 0 10C0 15.5228 4.47715 20 10 20ZM10 17C13.866 17 17 13.866 17 10C17 6.13401 13.866 3 10 3C6.13401 3 3 6.13401 3 10C3 13.866 6.13401 17 10 17Z" fill="#97745e"/></g><rect x="0" y="518" width="74" height="74" fill="#4c2d26"/><circle cx="37" cy="555" r="37" fill="#412721"/><rect x="74" y="518" width="74" height="74" fill="#513029"/><g transform="translate(74,518) scale(3.7) rotate(0)"><path d="M10 0L20 10L10 20L0 10L10 0Z" fill="#3f2620"/></g><rect x="148" y="518" width="74" height="74" fill="#462a23"/><g transform="translate(148,518) scale(3.7) rotate(0)"><path fill-rule="evenodd" clip-rule="evenodd" d="M10 20C15.5228 20 20 15.5228 20 10C20 4.47715 15.5228 0 10 0C4.47715 0 0 4.47715 0 10C0 15.5228 4.47715 20 10 20ZM10 17C13.866 17 17 13.866 17 10C17 6.13401 13.866 3 10 3C6.13401 3 3 6.13401 3 10C3 13.866 6.13401 17 10 17Z" fill="#775445"/></g><rect x="222" y="518" width="74" height="74" fill="#36201c"/><path d="M 222 518 A 74 74 0 0 1 296 592 L 222 592L222 518" fill="#bb987a"/><rect x="296" y="518" width="74" height="74" fill="#36201c"/><g transform="translate(296,518) scale(3.7) rotate(0)"><path d="M10 0L20 10L10 20L0 10L10 0Z" fill="#7c5949"/></g><rect x="370" y="518" width="74" height="74" fill="#37211c"/><g transform="translate(370,518) scale(3.7) rotate(0)"><path d="M10 0H20V10L10 20H0V10L10 0Z" fill="#513029"/></g><rect x="444" y="518" width="74" height="74" fill="#94715c"/><g transform="translate(444,518) scale(3.7) rotate(0)"><path d="M10 0H20V10L10 20H0V10L10 0Z" fill="#e5c29b"/></g><rect x="518" y="518" width="74" height="74" fill="#331e1a"/><g transform="translate(518,518) scale(3.7) rotate(0)"><path d="M10 0H20V10L10 20H0V10L10 0Z" fill="#513029"/></g><rect x="592" y="518" width="74" height="74" fill="#7a5747"/><g transform="translate(592,518) scale(3.7) rotate(0)"><path d="M10 0L20 10L10 20L0 10L10 0Z" fill="#603d33"/></g><rect x="666" y="518" width="74" height="74" fill="#765344"/><g transform="translate(666,518) scale(3.7) rotate(0)"><path fill-rule="evenodd" clip-rule="evenodd" d="M10 20C15.5228 20 20 15.5228 20 10C20 4.47715 15.5228 0 10 0C4.47715 0 0 4.47715 0 10C0 15.5228 4.47715 20 10 20ZM10 17C13.866 17 17 13.866 17 10C17 6.13401 13.866 3 10 3C6.13401 3 3 6.13401 3 10C3 13.866 6.13401 17 10 17Z" fill="#e2bf98"/></g><rect x="740" y="518" width="74" height="74" fill="#e6c39c"/><g transform="translate(740,518) scale(3.7) rotate(0)"><path d="M10 0L20 10L10 20L0 10L10 0Z" fill="#a07d65"/></g><rect x="814" y="518" width="74" height="74" fill="#e3c099"/><g transform="translate(814,518) scale(3.7) rotate(0)"><path d="M10 0H20L0 20V10L10 0Z" fill="#432822"/><path d="M20 10V20H10L20 10Z" fill="#432822"/></g><rect x="888" y="518" width="74" height="74" fill="#402621"/><g transform="translate(888,518) scale(3.7) rotate(0)"><path fill-rule="evenodd" clip-rule="evenodd" d="M10 20C15.5228 20 20 15.5228 20 10C20 4.47715 15.5228 0 10 0C4.47715 0 0 4.47715 0 10C0 15.5228 4.47715 20 10 20ZM10 17C13.866 17 17 13.866 17 10C17 6.13401 13.866 3 10 3C6.13401 3 3 6.13401 3 10C3 13.866 6.13401 17 10 17Z" fill="#56332b"/></g><rect x="962" y="518" width="74" height="74" fill="#422721"/><g transform="translate(962,518) scale(3.7) rotate(0)"><path fill-rule="evenodd" clip-rule="evenodd" d="M10 20C15.5228 20 20 15.5228 20 10C20 4.47715 15.5228 0 10 0C4.47715 0 0 4.47715 0 10C0 15.5228 4.47715 20 10 20ZM10 17C13.866 17 17 13.866 17 10C17 6.13401 13.866 3 10 3C6.13401 3 3 6.13401 3 10C3 13.866 6.13401 17 10 17Z" fill="#3b231e"/></g><rect x="1036" y="518" width="74" height="74" fill="#623f35"/><circle cx="1073" cy="555" r="37" fill="#d0ad8b"/><rect x="1110" y="518" width="74" height="74" fill="#caa786"/><g transform="translate(1110,518) scale(3.7) rotate(0)"><path d="M10 0H20V10L10 20H0V10L10 0Z" fill="#432822"/></g><rect x="0" y="592" width="74" height="74" fill="#be9b7d"/><rect x="0" y="592" width="74" height="74" fill="#c09d7e"/><rect x="74" y="592" width="74" height="74" fill="#ad8a6f"/><rect x="74" y="592" width="74" height="74" fill="#4c2d27"/><rect x="148" y="592" width="74" height="74" fill="#3d251f"/><path d="M 148 592 A 74 74 0 0 1  222 666 L 148 592 A 74 74 0 0 0 222 666" fill="#472a24"/><rect x="222" y="592" width="74" height="74" fill="#cdaa89"/><rect x="222" y="592" width="74" height="74" fill="#613e34"/><rect x="296" y="592" width="74" height="74" fill="#8d6a57"/><g transform="translate(296,592) scale(3.7) rotate(0)"><path d="M10 0H20V10L10 20H0V10L10 0Z" fill="#502f28"/></g><rect x="370" y="592" width="74" height="74" fill="#d1ae8b"/><g transform="translate(370,592) scale(3.7) rotate(0)"><path d="M10 0L20 10L10 20L0 10L10 0Z" fill="#513028"/></g><rect x="444" y="592" width="74" height="74" fill="#4a2c25"/><path d="M 444 592 A 74 74 0 0 1 518 666 L 444 666L444 592" fill="#98755f"/><rect x="518" y="592" width="74" height="74" fill="#6a473b"/><g transform="translate(518,592) scale(3.7) rotate(0)"><path d="M10 0H20L0 20V10L10 0Z" fill="#432822"/><path d="M20 10V20H10L20 10Z" fill="#432822"/></g><rect x="592" y="592" width="74" height="74" fill="#57342c"/><g transform="translate(592,592) scale(3.7) rotate(0)"><path d="M10 0H20L0 20V10L10 0Z" fill="#472a24"/><path d="M20 10V20H10L20 10Z" fill="#472a24"/></g><rect x="666" y="592" width="74" height="74" fill="#3a231e"/><circle cx="703" cy="629" r="37" fill="#7e5b4b"/><rect x="740" y="592" width="74" height="74" fill="#916e59"/><path d="M 740 666 A 74 74 0 0 1  814 592 L 814 666L740 666" fill="#4f2f28"/><rect x="814" y="592" width="74" height="74" fill="#5e3b31"/><rect x="814" y="592" width="74" height="74" fill="#492b25"/><rect x="888" y="592" width="74" height="74" fill="#674438"/><rect x="888" y="592" width="74" height="74" fill="#5f3c32"/><rect x="962" y="592" width="74" height="74" fill="#96735d"/><g transform="translate(962,592) scale(3.7) rotate(0)"><path fill-rule="evenodd" clip-rule="evenodd" d="M10 20C15.5228 20 20 15.5228 20 10C20 4.47715 15.5228 0 10 0C4.47715 0 0 4.47715 0 10C0 15.5228 4.47715 20 10 20ZM10 17C13.866 17 17 13.866 17 10C17 6.13401 13.866 3 10 3C6.13401 3 3 6.13401 3 10C3 13.866 6.13401 17 10 17Z" fill="#e0bd97"/></g><rect x="1036" y="592" width="74" height="74" fill="#3b241e"/><rect x="1036" y="592" width="74" height="74" fill="#b89578"/><rect x="1110" y="592" width="74" height="74" fill="#513029"/><g transform="translate(1110,592) scale(3.7) rotate(0)"><path d="M10 0H20V10L10 20H0V10L10 0Z" fill="#e5c29c"/></g></g></svg>