<?xml version="1.0" standalone="no"?><svg xmlns:xlink="http://www.w3.org/1999/xlink" xmlns="http://www.w3.org/2000/svg" viewBox="0 0 1000 562.5" preserveAspectRatio="xMaxYMax slice"><g transform="scale(0.8445945945945946)"><rect x="0" y="0" width="1184" height="666" fill="#efcca3"/><rect x="0" y="0" width="74" height="74" fill="#5e3b31"/><g transform="translate(0,0) scale(3.7) rotate(0)"><path d="M10 0L20 10L10 20L0 10L10 0Z" fill="#462a25"/></g><rect x="74" y="0" width="74" height="74" fill="#caa987"/><g transform="translate(74,0) scale(3.7) rotate(0)"><path fill-rule="evenodd" clip-rule="evenodd" d="M10 20C15.5228 20 20 15.5228 20 10C20 4.47715 15.5228 0 10 0C4.47715 0 0 4.47715 0 10C0 15.5228 4.47715 20 10 20ZM10 17C13.866 17 17 13.866 17 10C17 6.13401 13.866 3 10 3C6.13401 3 3 6.13401 3 10C3 13.866 6.13401 17 10 17Z" fill="#dbb994"/></g><rect x="148" y="0" width="74" height="74" fill="#e7c49d"/><rect x="148" y="0" width="74" height="74" fill="#69463a"/><rect x="222" y="0" width="74" height="74" fill="#cdaa89"/><circle cx="259" cy="37" r="37" fill="#a38067"/><rect x="296" y="0" width="74" height="74" fill="#6a473b"/><g transform="translate(296,0) scale(3.7) rotate(0)"><path d="M10 0H20L0 20V10L10 0Z" fill="#5d3a31"/><path d="M20 10V20H10L20 10Z" fill="#5d3a31"/></g><rect x="370" y="0" width="74" height="74" fill="#a08068"/><g transform="translate(370,0) scale(3.7) rotate(0)"><path d="M10 0H20V10L10 20H0V10L10 0Z" fill="#7a5c4b"/></g><rect x="444" y="0" width="74" height="74" fill="#53372e"/><g transform="translate(444,0) scale(3.7) rotate(0)"><path d="M10 0L20 10L10 20L0 10L10 0Z" fill="#6f4c3f"/></g><rect x="518" y="0" width="74" height="74" fill="#e5c29b"/><g transform="translate(518,0) scale(3.7) rotate(0)"><path d="M10 0L20 10L10 20L0 10L10 0Z" fill="#e9c69e"/></g><rect x="592" y="0" width="74" height="74" fill="#9b7b64"/><g transform="translate(592,0) scale(3.7) rotate(0)"><path d="M10 0H20L0 20V10L10 0Z" fill="#7b5d4c"/><path d="M20 10V20H10L20 10Z" fill="#7b5d4c"/></g><rect x="666" y="0" width="74" height="74" fill="#c6a383"/><path d="M 666 74 A 74 74 0 0 0 740 0 L 666 0L666 74" fill="#613e34"/><rect x="740" y="0" width="74" height="74" fill="#d2af8c"/><g transform="translate(740,0) scale(3.7) rotate(0)"><path d="M10 0L20 10L10 20L0 10L10 0Z" fill="#6e5042"/></g><rect x="814" y="0" width="74" height="74" fill="#69463a"/><g transform="translate(814,0) scale(3.7) rotate(0)"><path d="M10 0H20V10L10 20H0V10L10 0Z" fill="#7f5c4b"/></g><rect x="888" y="0" width="74" height="74" fill="#a2826a"/><g transform="translate(888,0) scale(3.7) rotate(0)"><path d="M10 0L20 10L10 20L0 10L10 0Z" fill="#856654"/></g><rect x="962" y="0" width="74" height="74" fill="#5a3d33"/><g transform="translate(962,0) scale(3.7) rotate(0)"><path d="M10 0H20L0 20V10L10 0Z" fill="#d1af8d"/><path d="M20 10V20H10L20 10Z" fill="#d1af8d"/></g><rect x="1036" y="0" width="74" height="74" fill="#d0ad8a"/><g transform="translate(1036,0) scale(3.7) rotate(0)"><path d="M10 0H20L0 20V10L10 0Z" fill="#d5b28f"/><path d="M20 10V20H10L20 10Z" fill="#d5b28f"/></g><rect x="1110" y="0" width="74" height="74" fill="#92735e"/><g transform="translate(1110,0) scale(3.7) rotate(0)"><path d="M10 0H20V10L10 20H0V10L10 0Z" fill="#b69578"/></g><rect x="0" y="74" width="74" height="74" fill="#9f7f67"/><rect x="0" y="74" width="74" height="74" fill="#63463a"/><rect x="74" y="74" width="74" height="74" fill="#9b7861"/><g transform="translate(74,74) scale(3.7) rotate(0)"><path d="M10 0H20V10L10 20H0V10L10 0Z" fill="#8a6754"/></g><rect x="148" y="74" width="74" height="74" fill="#7e5b4b"/><g transform="translate(148,74) scale(3.7) rotate(0)"><path d="M10 0H20L0 20V10L10 0Z" fill="#c6a383"/><path d="M20 10V20H10L20 10Z" fill="#c6a383"/></g><rect x="222" y="74" width="74" height="74" fill="#e3c09a"/><g transform="translate(222,74) scale(3.7) rotate(0)"><path d="M10 0H20V10L10 20H0V10L10 0Z" fill="#573b32"/></g><rect x="296" y="74" width="74" height="74" fill="#6e4b3e"/><path d="M 296 148 A 74 74 0 0 0 370 74 L 296 74L296 148" fill="#553930"/><rect x="370" y="74" width="74" height="74" fill="#95725c"/><path d="M 370 148 A 74 74 0 0 0 444 74 L 370 74L370 148" fill="#6d5042"/><rect x="444" y="74" width="74" height="74" fill="#a07d65"/><rect x="444" y="74" width="74" height="74" fill="#edcaa1"/><rect x="518" y="74" width="74" height="74" fill="#50332c"/><g transform="translate(518,74) scale(3.7) rotate(0)"><path d="M10 0L20 10L10 20L0 10L10 0Z" fill="#dfbc96"/></g><rect x="592" y="74" width="74" height="74" fill="#906d59"/><g transform="translate(592,74) scale(3.7) rotate(0)"><path d="M10 0H20V10L10 20H0V10L10 0Z" fill="#e5c29c"/></g><rect x="666" y="74" width="74" height="74" fill="#94745f"/><path d="M 666 74 A 74 74 0 0 1 740 148 L 666 148L666 74" fill="#a7846b"/><rect x="740" y="74" width="74" height="74" fill="#7b5d4c"/><g transform="translate(740,74) scale(3.7) rotate(0)"><path d="M10 0L20 10L10 20L0 10L10 0Z" fill="#b89578"/></g><rect x="814" y="74" width="74" height="74" fill="#8c6d59"/><g transform="translate(814,74) scale(3.7) rotate(0)"><path d="M10 0H20L0 20V10L10 0Z" fill="#987962"/><path d="M20 10V20H10L20 10Z" fill="#987962"/></g><rect x="888" y="74" width="74" height="74" fill="#6d4f41"/><g transform="translate(888,74) scale(3.7) rotate(0)"><path d="M10 0H20L0 20V10L10 0Z" fill="#5b3e34"/><path d="M20 10V20H10L20 10Z" fill="#5b3e34"/></g><rect x="962" y="74" width="74" height="74" fill="#ac8c71"/><g transform="translate(962,74) scale(3.7) rotate(0)"><path d="M10 0L20 10L10 20L0 10L10 0Z" fill="#5e3b31"/></g><rect x="1036" y="74" width="74" height="74" fill="#c3a282"/><g transform="translate(1036,74) scale(3.7) rotate(0)"><path d="M10 0H20V10L10 20H0V10L10 0Z" fill="#99765f"/></g><rect x="1110" y="74" width="74" height="74" fill="#614439"/><g transform="translate(1110,74) scale(3.7) rotate(0)"><path d="M10 0H20V10L10 20H0V10L10 0Z" fill="#7e5b4a"/></g><rect x="0" y="148" width="74" height="74" fill="#6a4c3f"/><g transform="translate(0,148) scale(3.7) rotate(0)"><path d="M10 0H20V10L10 20H0V10L10 0Z" fill="#b89578"/></g><rect x="74" y="148" width="74" height="74" fill="#896a56"/><g transform="translate(74,148) scale(3.7) rotate(0)"><path d="M10 0L20 10L10 20L0 10L10 0Z" fill="#ecc9a1"/></g><rect x="148" y="148" width="74" height="74" fill="#a27f66"/><g transform="translate(148,148) scale(3.7) rotate(0)"><path d="M10 0H20V10L10 20H0V10L10 0Z" fill="#b99679"/></g><rect x="222" y="148" width="74" height="74" fill="#623f35"/><g transform="translate(222,148) scale(3.7) rotate(0)"><path fill-rule="evenodd" clip-rule="evenodd" d="M10 20C15.5228 20 20 15.5228 20 10C20 4.47715 15.5228 0 10 0C4.47715 0 0 4.47715 0 10C0 15.5228 4.47715 20 10 20ZM10 17C13.866 17 17 13.866 17 10C17 6.13401 13.866 3 10 3C6.13401 3 3 6.13401 3 10C3 13.866 6.13401 17 10 17Z" fill="#583c32"/></g><rect x="296" y="148" width="74" height="74" fill="#755243"/><g transform="translate(296,148) scale(3.7) rotate(0)"><path d="M10 0H20L0 20V10L10 0Z" fill="#775445"/><path d="M20 10V20H10L20 10Z" fill="#775445"/></g><rect x="370" y="148" width="74" height="74" fill="#84614f"/><path d="M 370 148 A 74 74 0 0 0 444 222 L 444 148L370 148" fill="#c7a585"/><rect x="444" y="148" width="74" height="74" fill="#654237"/><g transform="translate(444,148) scale(3.7) rotate(0)"><path fill-rule="evenodd" clip-rule="evenodd" d="M10 20C15.5228 20 20 15.5228 20 10C20 4.47715 15.5228 0 10 0C4.47715 0 0 4.47715 0 10C0 15.5228 4.47715 20 10 20ZM10 17C13.866 17 17 13.866 17 10C17 6.13401 13.866 3 10 3C6.13401 3 3 6.13401 3 10C3 13.866 6.13401 17 10 17Z" fill="#785a4a"/></g><rect x="518" y="148" width="74" height="74" fill="#caa887"/><circle cx="555" cy="185" r="37" fill="#cfac8a"/><rect x="592" y="148" width="74" height="74" fill="#e2c099"/><circle cx="629" cy="185" r="37" fill="#9d7a63"/><rect x="666" y="148" width="74" height="74" fill="#816251"/><rect x="666" y="148" width="74" height="74" fill="#a9896f"/><rect x="740" y="148" width="74" height="74" fill="#7c5e4d"/><circle cx="777" cy="185" r="37" fill="#c6a584"/><rect x="814" y="148" width="74" height="74" fill="#cba988"/><rect x="814" y="148" width="74" height="74" fill="#ddba95"/><rect x="888" y="148" width="74" height="74" fill="#916e59"/><g transform="translate(888,148) scale(3.7) rotate(0)"><path d="M10 0L20 10L10 20L0 10L10 0Z" fill="#d4b28f"/></g><rect x="962" y="148" width="74" height="74" fill="#ecc9a1"/><rect x="962" y="148" width="74" height="74" fill="#d7b490"/><rect x="1036" y="148" width="74" height="74" fill="#e3c099"/><g transform="translate(1036,148) scale(3.7) rotate(0)"><path d="M10 0L20 10L10 20L0 10L10 0Z" fill="#b19074"/></g><rect x="1110" y="148" width="74" height="74" fill="#c8a585"/><g transform="translate(1110,148) scale(3.7) rotate(0)"><path d="M10 0H20L0 20V10L10 0Z" fill="#7a5747"/><path d="M20 10V20H10L20 10Z" fill="#7a5747"/></g><rect x="0" y="222" width="74" height="74" fill="#bd9a7b"/><rect x="0" y="222" width="74" height="74" fill="#af8c71"/><rect x="74" y="222" width="74" height="74" fill="#603d33"/><g transform="translate(74,222) scale(3.7) rotate(0)"><path d="M10 0H20V10L10 20H0V10L10 0Z" fill="#ba997b"/></g><rect x="148" y="222" width="74" height="74" fill="#e6c39c"/><g transform="translate(148,222) scale(3.7) rotate(0)"><path d="M10 0H20V10L10 20H0V10L10 0Z" fill="#b69578"/></g><rect x="222" y="222" width="74" height="74" fill="#ba9779"/><g transform="translate(222,222) scale(3.7) rotate(0)"><path d="M10 0H20L0 20V10L10 0Z" fill="#886956"/><path d="M20 10V20H10L20 10Z" fill="#886956"/></g><rect x="296" y="222" width="74" height="74" fill="#9c7d65"/><circle cx="333" cy="259" r="37" fill="#6f4c3e"/><rect x="370" y="222" width="74" height="74" fill="#be9d7f"/><g transform="translate(370,222) scale(3.7) rotate(0)"><path d="M10 0L20 10L10 20L0 10L10 0Z" fill="#5f3c32"/></g><rect x="444" y="222" width="74" height="74" fill="#ceab89"/><circle cx="481" cy="259" r="37" fill="#957660"/><rect x="518" y="222" width="74" height="74" fill="#69463a"/><g transform="translate(518,222) scale(3.7) rotate(0)"><path d="M10 0H20L0 20V10L10 0Z" fill="#896a57"/><path d="M20 10V20H10L20 10Z" fill="#896a57"/></g><rect x="592" y="222" width="74" height="74" fill="#916e59"/><g transform="translate(592,222) scale(3.7) rotate(0)"><path d="M10 0L20 10L10 20L0 10L10 0Z" fill="#d4b18e"/></g><rect x="666" y="222" width="74" height="74" fill="#ad8d71"/><path d="M 666 222 A 74 74 0 0 1  740 296 L 666 222 A 74 74 0 0 0 740 296" fill="#684539"/><rect x="740" y="222" width="74" height="74" fill="#452923"/><circle cx="777" cy="259" r="37" fill="#886956"/><rect x="814" y="222" width="74" height="74" fill="#725445"/><rect x="814" y="222" width="74" height="74" fill="#967760"/><rect x="888" y="222" width="74" height="74" fill="#e0be98"/><path d="M 888 222 A 74 74 0 0 0 962 296 L 962 222L888 222" fill="#aa876d"/><rect x="962" y="222" width="74" height="74" fill="#9c7c65"/><path d="M 962 296 A 74 74 0 0 1  1036 222 L 962 296 A 74 74 0 0 0 1036 222" fill="#c3a282"/><rect x="1036" y="222" width="74" height="74" fill="#c4a383"/><g transform="translate(1036,222) scale(3.7) rotate(0)"><path d="M10 0H20L0 20V10L10 0Z" fill="#d4b28f"/><path d="M20 10V20H10L20 10Z" fill="#d4b28f"/></g><rect x="1110" y="222" width="74" height="74" fill="#e0bd97"/><g transform="translate(1110,222) scale(3.7) rotate(0)"><path d="M10 0H20V10L10 20H0V10L10 0Z" fill="#d0ad8b"/></g><rect x="0" y="296" width="74" height="74" fill="#7e604e"/><circle cx="37" cy="333" r="37" fill="#714e40"/><rect x="74" y="296" width="74" height="74" fill="#5f3c32"/><path d="M 74 370 A 74 74 0 0 1  148 296 L 148 370L74 370" fill="#af8e73"/><rect x="148" y="296" width="74" height="74" fill="#e0bd97"/><g transform="translate(148,296) scale(3.7) rotate(0)"><path fill-rule="evenodd" clip-rule="evenodd" d="M10 20C15.5228 20 20 15.5228 20 10C20 4.47715 15.5228 0 10 0C4.47715 0 0 4.47715 0 10C0 15.5228 4.47715 20 10 20ZM10 17C13.866 17 17 13.866 17 10C17 6.13401 13.866 3 10 3C6.13401 3 3 6.13401 3 10C3 13.866 6.13401 17 10 17Z" fill="#e8c69e"/></g><rect x="222" y="296" width="74" height="74" fill="#ddbb96"/><g transform="translate(222,296) scale(3.7) rotate(0)"><path fill-rule="evenodd" clip-rule="evenodd" d="M10 20C15.5228 20 20 15.5228 20 10C20 4.47715 15.5228 0 10 0C4.47715 0 0 4.47715 0 10C0 15.5228 4.47715 20 10 20ZM10 17C13.866 17 17 13.866 17 10C17 6.13401 13.866 3 10 3C6.13401 3 3 6.13401 3 10C3 13.866 6.13401 17 10 17Z" fill="#cdab89"/></g><rect x="296" y="296" width="74" height="74" fill="#452924"/><path d="M 296 296 A 74 74 0 0 1 370 370 L 296 370L296 296" fill="#a17e66"/><rect x="370" y="296" width="74" height="74" fill="#755244"/><g transform="translate(370,296) scale(3.7) rotate(0)"><path d="M10 0H20V10L10 20H0V10L10 0Z" fill="#be9b7c"/></g><rect x="444" y="296" width="74" height="74" fill="#6f4c3f"/><rect x="444" y="296" width="74" height="74" fill="#debb96"/><rect x="518" y="296" width="74" height="74" fill="#704d40"/><g transform="translate(518,296) scale(3.7) rotate(0)"><path d="M10 0L20 10L10 20L0 10L10 0Z" fill="#6d4a3d"/></g><rect x="592" y="296" width="74" height="74" fill="#5e3b31"/><g transform="translate(592,296) scale(3.7) rotate(0)"><path d="M10 0L20 10L10 20L0 10L10 0Z" fill="#69463a"/></g><rect x="666" y="296" width="74" height="74" fill="#6e4b3e"/><circle cx="703" cy="333" r="37" fill="#5a3d33"/><rect x="740" y="296" width="74" height="74" fill="#b69376"/><path d="M 740 370 A 74 74 0 0 1  814 296 L 740 370 A 74 74 0 0 0 814 296" fill="#65473c"/><rect x="814" y="296" width="74" height="74" fill="#bc9b7d"/><g transform="translate(814,296) scale(3.7) rotate(0)"><path d="M10 0L20 10L10 20L0 10L10 0Z" fill="#765344"/></g><rect x="888" y="296" width="74" height="74" fill="#654237"/><circle cx="925" cy="333" r="37" fill="#e4c19a"/><rect x="962" y="296" width="74" height="74" fill="#e8c59d"/><g transform="translate(962,296) scale(3.7) rotate(0)"><path d="M10 0L20 10L10 20L0 10L10 0Z" fill="#52352d"/></g><rect x="1036" y="296" width="74" height="74" fill="#6b4d40"/><circle cx="1073" cy="333" r="37" fill="#755748"/><rect x="1110" y="296" width="74" height="74" fill="#bb9a7c"/><g transform="translate(1110,296) scale(3.7) rotate(0)"><path d="M10 0H20V10L10 20H0V10L10 0Z" fill="#e9c69e"/></g><rect x="0" y="370" width="74" height="74" fill="#e3c19a"/><g transform="translate(0,370) scale(3.7) rotate(0)"><path d="M10 0H20V10L10 20H0V10L10 0Z" fill="#c4a283"/></g><rect x="74" y="370" width="74" height="74" fill="#a7846b"/><circle cx="111" cy="407" r="37" fill="#99765f"/><rect x="148" y="370" width="74" height="74" fill="#b18e73"/><g transform="translate(148,370) scale(3.7) rotate(0)"><path d="M10 0H20L0 20V10L10 0Z" fill="#af8c71"/><path d="M20 10V20H10L20 10Z" fill="#af8c71"/></g><rect x="222" y="370" width="74" height="74" fill="#846653"/><path d="M 222 370 A 74 74 0 0 0 296 444 L 296 370L222 370" fill="#d5b38f"/><rect x="296" y="370" width="74" height="74" fill="#745143"/><g transform="translate(296,370) scale(3.7) rotate(0)"><path d="M10 0L20 10L10 20L0 10L10 0Z" fill="#b08d72"/></g><rect x="370" y="370" width="74" height="74" fill="#5c3f35"/><g transform="translate(370,370) scale(3.7) rotate(0)"><path d="M10 0H20L0 20V10L10 0Z" fill="#785a4a"/><path d="M20 10V20H10L20 10Z" fill="#785a4a"/></g><rect x="444" y="370" width="74" height="74" fill="#98755f"/><g transform="translate(444,370) scale(3.7) rotate(0)"><path d="M10 0H20V10L10 20H0V10L10 0Z" fill="#906d58"/></g><rect x="518" y="370" width="74" height="74" fill="#765848"/><rect x="518" y="370" width="74" height="74" fill="#825f4d"/><rect x="592" y="370" width="74" height="74" fill="#be9b7d"/><g transform="translate(592,370) scale(3.7) rotate(0)"><path fill-rule="evenodd" clip-rule="evenodd" d="M10 20C15.5228 20 20 15.5228 20 10C20 4.47715 15.5228 0 10 0C4.47715 0 0 4.47715 0 10C0 15.5228 4.47715 20 10 20ZM10 17C13.866 17 17 13.866 17 10C17 6.13401 13.866 3 10 3C6.13401 3 3 6.13401 3 10C3 13.866 6.13401 17 10 17Z" fill="#95725d"/></g><rect x="666" y="370" width="74" height="74" fill="#714e41"/><g transform="translate(666,370) scale(3.7) rotate(0)"><path d="M10 0H20L0 20V10L10 0Z" fill="#c7a484"/><path d="M20 10V20H10L20 10Z" fill="#c7a484"/></g><rect x="740" y="370" width="74" height="74" fill="#5e4137"/><g transform="translate(740,370) scale(3.7) rotate(0)"><path d="M10 0L20 10L10 20L0 10L10 0Z" fill="#462a25"/></g><rect x="814" y="370" width="74" height="74" fill="#906d59"/><g transform="translate(814,370) scale(3.7) rotate(0)"><path fill-rule="evenodd" clip-rule="evenodd" d="M10 20C15.5228 20 20 15.5228 20 10C20 4.47715 15.5228 0 10 0C4.47715 0 0 4.47715 0 10C0 15.5228 4.47715 20 10 20ZM10 17C13.866 17 17 13.866 17 10C17 6.13401 13.866 3 10 3C6.13401 3 3 6.13401 3 10C3 13.866 6.13401 17 10 17Z" fill="#b09074"/></g><rect x="888" y="370" width="74" height="74" fill="#4a2e28"/><g transform="translate(888,370) scale(3.7) rotate(0)"><path d="M10 0H20V10L10 20H0V10L10 0Z" fill="#dfbc96"/></g><rect x="962" y="370" width="74" height="74" fill="#9f8067"/><g transform="translate(962,370) scale(3.7) rotate(0)"><path fill-rule="evenodd" clip-rule="evenodd" d="M10 20C15.5228 20 20 15.5228 20 10C20 4.47715 15.5228 0 10 0C4.47715 0 0 4.47715 0 10C0 15.5228 4.47715 20 10 20ZM10 17C13.866 17 17 13.866 17 10C17 6.13401 13.866 3 10 3C6.13401 3 3 6.13401 3 10C3 13.866 6.13401 17 10 17Z" fill="#ad8d71"/></g><rect x="1036" y="370" width="74" height="74" fill="#e9c69e"/><circle cx="1073" cy="407" r="37" fill="#90715c"/><rect x="1110" y="370" width="74" height="74" fill="#af8c71"/><circle cx="1147" cy="407" r="37" fill="#9c7962"/><rect x="0" y="444" width="74" height="74" fill="#65483c"/><g transform="translate(0,444) scale(3.7) rotate(0)"><path d="M10 0H20V10L10 20H0V10L10 0Z" fill="#886552"/></g><rect x="74" y="444" width="74" height="74" fill="#59362d"/><g transform="translate(74,444) scale(3.7) rotate(0)"><path d="M10 0H20L0 20V10L10 0Z" fill="#ae8b70"/><path d="M20 10V20H10L20 10Z" fill="#ae8b70"/></g><rect x="148" y="444" width="74" height="74" fill="#57342c"/><g transform="translate(148,444) scale(3.7) rotate(0)"><path d="M10 0H20V10L10 20H0V10L10 0Z" fill="#825f4d"/></g><rect x="222" y="444" width="74" height="74" fill="#5b382f"/><g transform="translate(222,444) scale(3.7) rotate(0)"><path fill-rule="evenodd" clip-rule="evenodd" d="M10 20C15.5228 20 20 15.5228 20 10C20 4.47715 15.5228 0 10 0C4.47715 0 0 4.47715 0 10C0 15.5228 4.47715 20 10 20ZM10 17C13.866 17 17 13.866 17 10C17 6.13401 13.866 3 10 3C6.13401 3 3 6.13401 3 10C3 13.866 6.13401 17 10 17Z" fill="#664337"/></g><rect x="296" y="444" width="74" height="74" fill="#7f5c4c"/><circle cx="333" cy="481" r="37" fill="#d6b390"/><rect x="370" y="444" width="74" height="74" fill="#a17e66"/><g transform="translate(370,444) scale(3.7) rotate(0)"><path d="M10 0H20L0 20V10L10 0Z" fill="#ae8b70"/><path d="M20 10V20H10L20 10Z" fill="#ae8b70"/></g><rect x="444" y="444" width="74" height="74" fill="#84614f"/><g transform="translate(444,444) scale(3.7) rotate(0)"><path d="M10 0H20V10L10 20H0V10L10 0Z" fill="#c5a282"/></g><rect x="518" y="444" width="74" height="74" fill="#a7876d"/><g transform="translate(518,444) scale(3.7) rotate(0)"><path d="M10 0H20V10L10 20H0V10L10 0Z" fill="#c3a080"/></g><rect x="592" y="444" width="74" height="74" fill="#92735e"/><g transform="translate(592,444) scale(3.7) rotate(0)"><path d="M10 0H20V10L10 20H0V10L10 0Z" fill="#583b32"/></g><rect x="666" y="444" width="74" height="74" fill="#53362e"/><path d="M 666 518 A 74 74 0 0 1  740 444 L 740 518L666 518" fill="#cdac8a"/><rect x="740" y="444" width="74" height="74" fill="#c6a383"/><g transform="translate(740,444) scale(3.7) rotate(0)"><path d="M10 0H20V10L10 20H0V10L10 0Z" fill="#6d4f42"/></g><rect x="814" y="444" width="74" height="74" fill="#d3b18e"/><rect x="814" y="444" width="74" height="74" fill="#674438"/><rect x="888" y="444" width="74" height="74" fill="#a9866c"/><g transform="translate(888,444) scale(3.7) rotate(0)"><path d="M10 0H20L0 20V10L10 0Z" fill="#b9987b"/><path d="M20 10V20H10L20 10Z" fill="#b9987b"/></g><rect x="962" y="444" width="74" height="74" fill="#ae8d72"/><g transform="translate(962,444) scale(3.7) rotate(0)"><path d="M10 0H20L0 20V10L10 0Z" fill="#6f5243"/><path d="M20 10V20H10L20 10Z" fill="#6f5243"/></g><rect x="1036" y="444" width="74" height="74" fill="#7c5949"/><g transform="translate(1036,444) scale(3.7) rotate(0)"><path d="M10 0H20L0 20V10L10 0Z" fill="#553830"/><path d="M20 10V20H10L20 10Z" fill="#553830"/></g><rect x="1110" y="444" width="74" height="74" fill="#5a372e"/><path d="M 1110 518 A 74 74 0 0 1  1184 444 L 1110 518 A 74 74 0 0 0 1184 444" fill="#a7876d"/><rect x="0" y="518" width="74" height="74" fill="#a18169"/><g transform="translate(0,518) scale(3.7) rotate(0)"><path fill-rule="evenodd" clip-rule="evenodd" d="M10 20C15.5228 20 20 15.5228 20 10C20 4.47715 15.5228 0 10 0C4.47715 0 0 4.47715 0 10C0 15.5228 4.47715 20 10 20ZM10 17C13.866 17 17 13.866 17 10C17 6.13401 13.866 3 10 3C6.13401 3 3 6.13401 3 10C3 13.866 6.13401 17 10 17Z" fill="#b18e72"/></g><rect x="74" y="518" width="74" height="74" fill="#dfbc97"/><g transform="translate(74,518) scale(3.7) rotate(0)"><path d="M10 0L20 10L10 20L0 10L10 0Z" fill="#7d5a49"/></g><rect x="148" y="518" width="74" height="74" fill="#e2bf99"/><g transform="translate(148,518) scale(3.7) rotate(0)"><path d="M10 0L20 10L10 20L0 10L10 0Z" fill="#bf9c7d"/></g><rect x="222" y="518" width="74" height="74" fill="#57342b"/><g transform="translate(222,518) scale(3.7) rotate(0)"><path d="M10 0H20V10L10 20H0V10L10 0Z" fill="#b39376"/></g><rect x="296" y="518" width="74" height="74" fill="#5b382f"/><rect x="296" y="518" width="74" height="74" fill="#bd9a7c"/><rect x="370" y="518" width="74" height="74" fill="#684a3e"/><g transform="translate(370,518) scale(3.7) rotate(0)"><path d="M10 0H20L0 20V10L10 0Z" fill="#785a4a"/><path d="M20 10V20H10L20 10Z" fill="#785a4a"/></g><rect x="444" y="518" width="74" height="74" fill="#714e41"/><g transform="translate(444,518) scale(3.7) rotate(0)"><path d="M10 0H20L0 20V10L10 0Z" fill="#613e33"/><path d="M20 10V20H10L20 10Z" fill="#613e33"/></g><rect x="518" y="518" width="74" height="74" fill="#5e3b31"/><g transform="translate(518,518) scale(3.7) rotate(0)"><path d="M10 0H20V10L10 20H0V10L10 0Z" fill="#d7b490"/></g><rect x="592" y="518" width="74" height="74" fill="#5f3c32"/><circle cx="629" cy="555" r="37" fill="#926f5a"/><rect x="666" y="518" width="74" height="74" fill="#9a7760"/><g transform="translate(666,518) scale(3.7) rotate(0)"><path d="M10 0H20V10L10 20H0V10L10 0Z" fill="#654236"/></g><rect x="740" y="518" width="74" height="74" fill="#9b7861"/><g transform="translate(740,518) scale(3.7) rotate(0)"><path d="M10 0H20L0 20V10L10 0Z" fill="#c6a484"/><path d="M20 10V20H10L20 10Z" fill="#c6a484"/></g><rect x="814" y="518" width="74" height="74" fill="#c8a786"/><circle cx="851" cy="555" r="37" fill="#ba997b"/><rect x="888" y="518" width="74" height="74" fill="#c8a584"/><circle cx="925" cy="555" r="37" fill="#e0bd97"/><rect x="962" y="518" width="74" height="74" fill="#442823"/><g transform="translate(962,518) scale(3.7) rotate(0)"><path d="M10 0H20L0 20V10L10 0Z" fill="#e1be98"/><path d="M20 10V20H10L20 10Z" fill="#e1be98"/></g><rect x="1036" y="518" width="74" height="74" fill="#eecba2"/><path d="M 1036 592 A 74 74 0 0 0 1110 518 L 1036 518L1036 592" fill="#6f4c3f"/><rect x="1110" y="518" width="74" height="74" fill="#bd9c7e"/><rect x="1110" y="518" width="74" height="74" fill="#b18e72"/><rect x="0" y="592" width="74" height="74" fill="#e5c29b"/><g transform="translate(0,592) scale(3.7) rotate(0)"><path d="M10 0L20 10L10 20L0 10L10 0Z" fill="#c1a080"/></g><rect x="74" y="592" width="74" height="74" fill="#d9b692"/><g transform="translate(74,592) scale(3.7) rotate(0)"><path d="M10 0H20L0 20V10L10 0Z" fill="#7c5949"/><path d="M20 10V20H10L20 10Z" fill="#7c5949"/></g><rect x="148" y="592" width="74" height="74" fill="#94715b"/><g transform="translate(148,592) scale(3.7) rotate(0)"><path d="M10 0H20V10L10 20H0V10L10 0Z" fill="#dfbc97"/></g><rect x="222" y="592" width="74" height="74" fill="#c6a383"/><g transform="translate(222,592) scale(3.7) rotate(0)"><path d="M10 0H20L0 20V10L10 0Z" fill="#90705c"/><path d="M20 10V20H10L20 10Z" fill="#90705c"/></g><rect x="296" y="592" width="74" height="74" fill="#8d6a56"/><g transform="translate(296,592) scale(3.7) rotate(0)"><path d="M10 0H20L0 20V10L10 0Z" fill="#d1b08d"/><path d="M20 10V20H10L20 10Z" fill="#d1b08d"/></g><rect x="370" y="592" width="74" height="74" fill="#be9d7f"/><g transform="translate(370,592) scale(3.7) rotate(0)"><path d="M10 0H20L0 20V10L10 0Z" fill="#ceab89"/><path d="M20 10V20H10L20 10Z" fill="#ceab89"/></g><rect x="444" y="592" width="74" height="74" fill="#a6836a"/><g transform="translate(444,592) scale(3.7) rotate(0)"><path d="M10 0L20 10L10 20L0 10L10 0Z" fill="#8e6f5b"/></g><rect x="518" y="592" width="74" height="74" fill="#e0bd97"/><path d="M 518 592 A 74 74 0 0 1  592 666 L 518 592 A 74 74 0 0 0 592 666" fill="#b18e72"/><rect x="592" y="592" width="74" height="74" fill="#a6836a"/><g transform="translate(592,592) scale(3.7) rotate(0)"><path d="M10 0H20V10L10 20H0V10L10 0Z" fill="#e7c49d"/></g><rect x="666" y="592" width="74" height="74" fill="#67493d"/><g transform="translate(666,592) scale(3.7) rotate(0)"><path d="M10 0L20 10L10 20L0 10L10 0Z" fill="#815e4d"/></g><rect x="740" y="592" width="74" height="74" fill="#94755f"/><circle cx="777" cy="629" r="37" fill="#8d6a56"/><rect x="814" y="592" width="74" height="74" fill="#7b5848"/><rect x="814" y="592" width="74" height="74" fill="#ebc8a0"/><rect x="888" y="592" width="74" height="74" fill="#765344"/><g transform="translate(888,592) scale(3.7) rotate(0)"><path d="M10 0H20L0 20V10L10 0Z" fill="#c8a786"/><path d="M20 10V20H10L20 10Z" fill="#c8a786"/></g><rect x="962" y="592" width="74" height="74" fill="#cca988"/><circle cx="999" cy="629" r="37" fill="#563930"/><rect x="1036" y="592" width="74" height="74" fill="#624439"/><rect x="1036" y="592" width="74" height="74" fill="#916e59"/><rect x="1110" y="592" width="74" height="74" fill="#472b25"/><path d="M 1110 666 A 74 74 0 0 1  1184 592 L 1184 666L1110 666" fill="#987862"/></g></svg>